<svg width="78" height="78" viewBox="0 0 78 78" fill="none" xmlns="http://www.w3.org/2000/svg">
<path d="M38.6684 66.1208L38.6644 66.1245C35.308 69.1641 30.8766 71.0001 26 71.0001C15.5186 71.0001 7 62.4814 7 52.0001C7 43.4155 12.7451 36.1121 20.5719 33.7857C22.9395 39.3811 27.7798 43.6728 33.7318 45.2995C35.4031 45.7673 37.1706 46.0001 39 46.0001C40.6699 46.0001 42.2884 45.8061 43.8291 45.4164C44.5835 47.4574 45 49.6866 45 52.0001C45 57.6052 42.5621 62.6704 38.6684 66.1208L38.6684 66.1208Z" stroke="#CFAB4A"/>
<path d="M56.6703 32.998L56.6702 32.9982C54.4852 38.5081 49.7979 42.7519 44.0032 44.3352L44.0002 44.336C42.422 44.7779 40.7451 45 39 45C37.2549 45 35.578 44.7779 33.9998 44.336L33.9968 44.3352C28.2021 42.7519 23.5148 38.5081 21.3298 32.9982L21.3297 32.998C20.4752 30.8459 20 28.471 20 26C20 15.5186 28.5186 7 39 7C49.4814 7 58 15.5186 58 26C58 28.471 57.5248 30.8459 56.6703 32.998Z" stroke="#CFAB4A"/>
<path d="M71 52.0001C71 62.4814 62.4814 71.0001 52 71.0001C47.3212 71.0001 43.0521 69.31 39.7493 66.4883C43.6065 62.8671 46 57.697 46 52.0001C46 49.5961 45.5724 47.2768 44.7956 45.1475C50.5056 43.4167 55.1308 39.2149 57.4281 33.7857C65.2549 36.1121 71 43.4155 71 52.0001Z" stroke="#CFAB4A"/>
</svg>
