<svg width="78" height="78" viewBox="0 0 78 78" fill="none" xmlns="http://www.w3.org/2000/svg">
<g opacity="0.4">
<path d="M28.1836 46.572C28.1836 50.7645 31.4011 54.1445 35.3986 54.1445H43.5561C47.0336 54.1445 49.8611 51.187 49.8611 47.547C49.8611 43.582 48.1386 42.1845 45.5711 41.2745L32.4736 36.7245C29.9061 35.8145 28.1836 34.417 28.1836 30.452C28.1836 26.812 31.0111 23.8545 34.4886 23.8545H42.6461C46.6436 23.8545 49.8611 27.2345 49.8611 31.427" stroke="#CFAB4A" stroke-width="1.5" stroke-linecap="round" stroke-linejoin="round"/>
<path d="M39 19.5V58.5" stroke="#CFAB4A" stroke-width="1.5" stroke-linecap="round" stroke-linejoin="round"/>
</g>
<path d="M48.75 71.5H29.25C13 71.5 6.5 65 6.5 48.75V29.25C6.5 13 13 6.5 29.25 6.5H48.75C65 6.5 71.5 13 71.5 29.25V48.75C71.5 65 65 71.5 48.75 71.5Z" stroke="#CFAB4A" stroke-width="1.5" stroke-linecap="round" stroke-linejoin="round"/>
</svg>
